<svg width="71" height="39" viewBox="0 0 71 39" fill="none" xmlns="http://www.w3.org/2000/svg">
<path d="M64.0917 4.5V34.867C64.0917 36.5238 62.7486 37.867 61.0917 37.867H9.40826C7.7514 37.867 6.40826 36.5238 6.40826 34.867V4.5M45.1641 19.1303L46.2656 18.342L48.4688 16.7655L52.875 13.6124L62.8984 6.43969C65.2707 4.74205 64.0697 1 61.1526 1H35.25H9.34745C6.43026 1 5.22927 4.74205 7.60161 6.43969L17.625 13.6124L22.0312 16.7655L24.2344 18.342L24.7852 18.7362" stroke="black" stroke-width="2"/>
<path d="M8 37L20 16" stroke="black" stroke-width="2"/>
<path d="M63 37L50 16.5" stroke="black" stroke-width="2"/>
<path d="M28.0692 11.0408C32.8955 11.6822 34.0037 15.7213 34.8167 18.9318C35.6726 15.6951 36.8509 11.6878 41.9311 11.0411C44.6208 10.6988 46.6705 12.5542 47.544 14.3146C50.325 19.919 39.667 27.8067 35 30C30.5663 27.8244 19.7688 19.8469 22.4107 14.2878C23.2406 12.5416 25.514 10.7012 28.0692 11.0408Z" fill="#E50A0D" stroke="black" stroke-linecap="round"/>
</svg>
